<svg width="60" height="60" viewBox="0 0 60 60" fill="none" xmlns="http://www.w3.org/2000/svg">
<path d="M56.3641 27.594L51.6414 16.5801C51.346 15.8906 50.8547 15.303 50.2285 14.8901C49.6023 14.4772 48.8687 14.2572 48.1186 14.2573H6.76612C6.07446 14.2573 5.41113 14.5321 4.92205 15.0212C4.43297 15.5102 4.1582 16.1736 4.1582 16.8652V42.4751C4.1582 42.7115 4.25209 42.9381 4.4192 43.1052C4.58631 43.2724 4.81296 43.3662 5.04929 43.3662H11.4057C11.6784 44.7092 12.407 45.9165 13.468 46.7837C14.529 47.6509 15.8572 48.1247 17.2275 48.1247C18.5978 48.1247 19.926 47.6509 20.987 46.7837C22.048 45.9165 22.7766 44.7092 23.0493 43.3662H38.1384C38.4111 44.7092 39.1397 45.9165 40.2007 46.7837C41.2617 47.6509 42.5899 48.1247 43.9602 48.1247C45.3305 48.1247 46.6587 47.6509 47.7197 46.7837C48.7807 45.9165 49.5093 44.7092 49.782 43.3662H55.5443C55.7807 43.3662 56.0073 43.2724 56.1744 43.1052C56.3415 42.9381 56.4354 42.7115 56.4354 42.4751V27.9207C56.4324 27.8083 56.4082 27.6974 56.3641 27.594ZM50.0018 17.2811L54.0592 26.7326H41.5839V16.0395H48.1186C48.5195 16.0396 48.9116 16.1572 49.2464 16.3779C49.5811 16.5986 49.8437 16.9126 50.0018 17.2811ZM6.76612 16.0395H39.8018V26.7326H5.94038V16.8652C5.94038 16.6462 6.02738 16.4362 6.18224 16.2814C6.33709 16.1265 6.54712 16.0395 6.76612 16.0395ZM17.2275 46.3365C16.4051 46.3365 15.6011 46.0926 14.9172 45.6357C14.2334 45.1788 13.7004 44.5293 13.3856 43.7695C13.0709 43.0096 12.9885 42.1735 13.149 41.3668C13.3095 40.5602 13.7055 39.8192 14.2871 39.2377C14.8686 38.6561 15.6096 38.2601 16.4162 38.0996C17.2229 37.9392 18.059 38.0215 18.8189 38.3362C19.5787 38.651 20.2282 39.184 20.6851 39.8678C21.142 40.5517 21.3859 41.3557 21.3859 42.1781C21.3859 43.281 20.9478 44.3387 20.168 45.1186C19.3881 45.8984 18.3304 46.3365 17.2275 46.3365ZM43.9602 46.3365C43.1377 46.3365 42.3337 46.0926 41.6499 45.6357C40.966 45.1788 40.433 44.5293 40.1183 43.7695C39.8036 43.0096 39.7212 42.1735 39.8817 41.3668C40.0421 40.5602 40.4382 39.8192 41.0197 39.2377C41.6013 38.6561 42.3423 38.2601 43.1489 38.0996C43.9556 37.9392 44.7917 38.0215 45.5515 38.3362C46.3114 38.651 46.9608 39.184 47.4178 39.8678C47.8747 40.5517 48.1186 41.3557 48.1186 42.1781C48.1186 43.281 47.6805 44.3387 46.9006 45.1186C46.1208 45.8984 45.0631 46.3365 43.9602 46.3365ZM49.8711 41.5841C49.724 40.1186 49.0377 38.76 47.9455 37.772C46.8533 36.7839 45.433 36.2368 43.9602 36.2368C42.4874 36.2368 41.067 36.7839 39.9748 37.772C38.8826 38.76 38.1964 40.1186 38.0493 41.5841H23.1384C22.9913 40.1186 22.3051 38.76 21.2129 37.772C20.1206 36.7839 18.7003 36.2368 17.2275 36.2368C15.7547 36.2368 14.3344 36.7839 13.2422 37.772C12.1499 38.76 11.4637 40.1186 11.3166 41.5841H5.94038V28.5147H54.6533V41.5841H49.8711Z" fill="#1395DF"/>
</svg>
