<svg width="60" height="60" viewBox="0 0 60 60" fill="none" xmlns="http://www.w3.org/2000/svg">
<path d="M28.8886 42.6583C28.8886 42.1633 28.4874 41.7615 27.9918 41.7615H7.71553C8.18248 32.9193 15.5216 25.8702 24.475 25.8702C27.7096 25.8702 30.8497 26.7922 33.5539 28.5374C33.9701 28.8052 34.5249 28.6863 34.7939 28.2695C35.0624 27.8534 34.9422 27.298 34.5267 27.0295C31.5307 25.0977 28.0551 24.0765 24.475 24.0765C14.2319 24.0765 5.89795 32.4123 5.89795 42.6583C5.89795 43.1534 6.29913 43.5552 6.79478 43.5552H27.9918C28.4868 43.5552 28.8886 43.1534 28.8886 42.6583Z" fill="#1395DF"/>
<path d="M24.1642 22.4137C30.0905 22.4137 34.9119 17.5918 34.9119 11.6643C34.9119 5.7416 30.0905 0.922607 24.1642 0.922607C18.2421 0.922607 13.4243 5.7416 13.4243 11.6643C13.4243 17.5912 18.2421 22.4137 24.1642 22.4137ZM24.1642 2.71628C29.101 2.71628 33.1182 6.73051 33.1182 11.6643C33.1182 16.6023 29.1016 20.6201 24.1642 20.6201C19.2316 20.6201 15.218 16.6023 15.218 11.6643C15.218 6.73051 19.2316 2.71628 24.1642 2.71628Z" fill="#1395DF"/>
<path d="M53.7333 53.2044L47.5189 44.1667C48.7045 42.6068 49.3616 40.7217 49.3747 38.7289C49.4112 33.6923 45.3438 29.5639 40.3065 29.5256C35.2885 29.5017 31.1409 33.5638 31.1038 38.6004C31.0901 40.6434 31.7597 42.5291 32.8867 44.0603L26.5371 53.0101C26.3237 53.3121 26.3165 53.7138 26.5198 54.0223C26.7231 54.3309 27.0938 54.4833 27.4561 54.4062L32.4796 53.3324L33.3621 58.0515C33.432 58.4252 33.7292 58.714 34.1046 58.7732C34.1513 58.7803 34.1979 58.7839 34.2433 58.7839C34.5692 58.7839 34.8741 58.6064 35.032 58.3134L40.1678 48.8105L45.1686 58.3851C45.3246 58.6841 45.6325 58.867 45.9626 58.867C46.0044 58.867 46.0469 58.8641 46.0893 58.8581C46.4654 58.8043 46.7673 58.5203 46.8427 58.1478L47.7933 53.4436L52.7929 54.5874C53.1516 54.6693 53.5277 54.5234 53.7351 54.2173C53.9438 53.9099 53.9426 53.5082 53.7333 53.2044ZM40.2456 31.3193C40.2611 31.3193 40.2778 31.3193 40.2934 31.3193C44.3417 31.3498 47.6104 34.6687 47.5805 38.7164V38.717C47.5679 40.6757 46.7912 42.513 45.3934 43.8893C44.0093 45.2525 42.1821 46.0017 40.2426 46.0011C40.2246 46.0011 40.2055 46.0011 40.187 46.0011C36.1404 45.9736 32.8706 42.6589 32.8975 38.6123C32.9268 34.5808 36.2194 31.3193 40.2456 31.3193ZM34.6601 55.2307L34.0747 52.0977C34.0305 51.8604 33.8912 51.6499 33.6903 51.516C33.4882 51.3809 33.2407 51.3336 33.0051 51.3851L29.3323 52.1701L34.119 45.4235C35.3901 46.575 36.9835 47.3708 38.7502 47.662L34.6601 55.2307ZM47.2977 51.4885C47.0603 51.4341 46.814 51.4783 46.6113 51.6087C46.408 51.7402 46.2669 51.9477 46.2185 52.185L45.5871 55.3096L41.604 47.6841C43.3331 47.4264 44.9402 46.6815 46.2675 45.512L50.952 52.3249L47.2977 51.4885Z" fill="#1395DF"/>
</svg>
