<svg width="60" height="60" viewBox="0 0 60 60" fill="none" xmlns="http://www.w3.org/2000/svg">
<path d="M35.6655 30.6948C36.1 30.3737 36.3129 29.8404 36.2197 29.3059L35.458 24.7924L38.6901 21.5937C39.0739 21.2146 39.2101 20.658 39.045 20.1402C38.8793 19.6219 38.446 19.2512 37.9142 19.1722L33.4428 18.5134L31.4441 14.4017C31.2041 13.9156 30.723 13.6143 30.1883 13.6143C30.1865 13.6143 30.1842 13.6143 30.1824 13.6143C29.6471 13.6166 29.1683 13.9204 28.9331 14.4071L26.9367 18.5134L22.4671 19.1722C21.9341 19.2512 21.5002 19.623 21.3351 20.1432C21.1706 20.661 21.3074 21.2176 21.6901 21.5925L24.9239 24.7924L24.1598 29.325C24.069 29.8577 24.2783 30.388 24.707 30.7085C24.9534 30.8933 25.2441 30.9871 25.5359 30.9871C25.7517 30.9871 25.9681 30.9363 26.1685 30.8329L30.2832 28.7211L34.1863 30.8024C34.6632 31.0577 35.2304 31.0164 35.6655 30.6948ZM29.897 26.9304L26.0034 28.9286L26.7274 24.6316C26.7764 24.344 26.6821 24.0504 26.4763 23.8471L23.4217 20.8248L27.6448 20.2024C27.9296 20.1605 28.1761 19.9782 28.3034 19.7163L30.1901 15.836L32.0761 19.7163C32.2035 19.9782 32.4499 20.1605 32.7347 20.2024L36.9596 20.8248L33.9056 23.8471C33.6998 24.051 33.6055 24.3446 33.6544 24.6322L34.3743 28.8969L30.6983 26.9364C30.4495 26.8031 30.1494 26.8013 29.897 26.9304Z" fill="#1395DF"/>
<path d="M59.1344 20.1781C58.9693 19.6586 58.5354 19.2873 58.003 19.2084L53.531 18.5495L51.5317 14.4408C51.2936 13.9529 50.8125 13.6504 50.2765 13.6504C50.2753 13.6504 50.2742 13.6504 50.273 13.6504C49.7371 13.6516 49.2571 13.9553 49.0213 14.4432L47.025 18.5495L42.5536 19.209C42.0183 19.2879 41.5837 19.6616 41.4198 20.1835C41.2571 20.7031 41.3974 21.2585 41.7783 21.6268L45.0116 24.8291L44.2445 29.3671C44.1561 29.9016 44.3689 30.4319 44.7993 30.7512C45.0452 30.9336 45.3335 31.0257 45.623 31.0257C45.8387 31.0257 46.0557 30.9742 46.2556 30.8702L50.3703 28.7609L54.2763 30.8451C54.755 31.0962 55.321 31.0526 55.7555 30.7297C56.1877 30.408 56.3987 29.8753 56.3068 29.3432L55.5427 24.8297L58.7748 21.6304C59.1621 21.2514 59.2989 20.6959 59.1344 20.1781ZM53.9927 23.8833C53.7863 24.0871 53.6926 24.3813 53.7415 24.6683L54.4643 28.9366L50.7883 26.975C50.5371 26.841 50.2388 26.8386 49.9859 26.9684L46.0899 28.9659L46.8157 24.6683C46.8646 24.3807 46.7709 24.0871 46.5645 23.8833L43.5117 20.8603L47.7331 20.2385C48.0178 20.1967 48.2643 20.0143 48.3916 19.7524L50.2771 15.8733L52.165 19.7524C52.2923 20.0143 52.5388 20.1961 52.8235 20.2379L57.0467 20.8603L53.9927 23.8833Z" fill="#1395DF"/>
<path d="M15.5777 30.6938C16.0129 30.3721 16.2251 29.8388 16.1314 29.3055L15.3696 24.792L18.6017 21.5933C18.9861 21.2137 19.1229 20.6564 18.9572 20.138C18.7921 19.6203 18.3594 19.2502 17.8288 19.1713L13.3562 18.5124L11.3557 14.4007C11.1158 13.9152 10.6353 13.6133 10.1005 13.6133C10.0993 13.6133 10.0982 13.6133 10.097 13.6133C9.56224 13.6145 9.08232 13.9176 8.8453 14.4043V14.4049L6.84839 18.5124L2.37877 19.1713C1.84461 19.2502 1.41067 19.6227 1.24618 20.1434C1.08287 20.6624 1.22142 21.219 1.60347 21.5909L4.83733 24.7908L4.07087 29.3234C3.98007 29.8555 4.18937 30.3853 4.61859 30.7063C4.86563 30.8917 5.15629 30.9856 5.44931 30.9856C5.66451 30.9856 5.88147 30.9347 6.08193 30.8313L10.1966 28.7196L14.0973 30.8008C14.5766 31.0579 15.1432 31.0161 15.5777 30.6938ZM9.81104 26.9301L5.91567 28.9294L6.64145 24.6318C6.69038 24.3442 6.59605 24.05 6.39028 23.8468L3.33507 20.8244L7.55648 20.202C7.84125 20.1602 8.08769 19.9778 8.21504 19.7159L10.1017 15.835L11.9901 19.7159C12.1175 19.9778 12.3639 20.1596 12.6487 20.2014L16.8719 20.8238L13.8173 23.8462C13.6115 24.05 13.5172 24.3436 13.5661 24.6312L14.286 28.8959L10.6129 26.9361C10.3629 26.8027 10.0634 26.8009 9.81104 26.9301Z" fill="#1395DF"/>
<path d="M27.8719 39.5575L23.4005 38.901L21.4007 34.7881C21.1607 34.3038 20.6802 34.0037 20.1466 34.0037C20.1455 34.0037 20.1443 34.0037 20.1431 34.0037C19.6089 34.0049 19.1296 34.3068 18.8926 34.7917C18.892 34.7923 18.8914 34.7929 18.8914 34.7941L16.8945 38.901L12.4196 39.5587C11.8866 39.6406 11.4533 40.0154 11.2905 40.5368C11.129 41.054 11.2675 41.6082 11.6478 41.9789L14.8829 45.1788L14.117 49.7126C14.0268 50.2447 14.2349 50.7739 14.6623 51.0949C14.9088 51.2803 15.1995 51.3747 15.4931 51.3747C15.7083 51.3747 15.9246 51.3239 16.1263 51.2211L20.241 49.1075L24.144 51.1888C24.6216 51.4423 25.1864 51.4022 25.6221 51.0812C26.056 50.7613 26.27 50.2292 26.1787 49.6935L25.4146 45.1776L28.6449 41.9813C29.0293 41.6046 29.1672 41.0498 29.0039 40.5326C28.8412 40.0136 28.4096 39.64 27.8719 39.5575ZM23.864 44.233C23.6576 44.4368 23.5639 44.7304 23.6128 45.018L24.3344 49.2839L20.6566 47.3228C20.4066 47.1889 20.1071 47.1865 19.8542 47.3169L15.9606 49.3162L16.6864 45.018C16.7353 44.7304 16.641 44.4368 16.4346 44.233L13.3788 41.2106L17.6014 40.59C17.8868 40.5482 18.1332 40.3664 18.2606 40.1039L20.1466 36.2236L22.0333 40.1039C22.1607 40.3664 22.4071 40.5482 22.6925 40.59L26.9168 41.2106L23.864 44.233Z" fill="#1395DF"/>
<path d="M47.9601 39.594L43.4887 38.9351L41.4883 34.8211C41.2483 34.3374 40.7678 34.0372 40.2348 34.0372C40.2337 34.0372 40.2325 34.0372 40.2313 34.0372C39.6977 34.0384 39.2184 34.3404 38.9802 34.8241C38.9796 34.8252 38.9796 34.8264 38.979 34.8276L36.9821 38.9345L32.5119 39.5934C31.9801 39.6723 31.5456 40.043 31.3805 40.562C31.2154 41.0798 31.3516 41.6376 31.7366 42.0161L34.9693 45.2118L34.2052 49.745C34.115 50.2759 34.3225 50.805 34.7488 51.1267C34.9952 51.3132 35.2871 51.4083 35.5824 51.4083C35.7965 51.4083 36.0122 51.3581 36.2145 51.2564L40.3292 49.1429L44.2316 51.2218C44.708 51.4771 45.2758 51.4358 45.7109 51.1135C46.1454 50.7925 46.3576 50.2598 46.2645 49.7276L45.5022 45.2124L48.7366 42.0155C49.1204 41.6346 49.2554 41.0768 49.0898 40.559C48.9247 40.0424 48.4913 39.6723 47.9601 39.594ZM43.9521 44.2671C43.7458 44.471 43.6515 44.7646 43.7004 45.0521L44.4209 49.3175L40.7448 47.3594C40.4948 47.2255 40.1953 47.2231 39.9424 47.3534L36.0482 49.3534L36.7728 45.0521C36.8217 44.7646 36.7274 44.471 36.5211 44.2671L33.4658 41.2472L37.6902 40.6248C37.975 40.5829 38.2214 40.4006 38.3488 40.1387L40.2354 36.2578L42.1221 40.1387C42.2494 40.4006 42.4959 40.5829 42.7806 40.6248L47.0074 41.2472L43.9521 44.2671Z" fill="#1395DF"/>
</svg>
